<svg xmlns="http://www.w3.org/2000/svg" viewBox="0 0 200 200">
  <!-- Goat body -->
  <path d="M50 100 Q80 70 120 70 L160 70 L170 90 L160 110 Q140 140 100 140 Q60 140 50 100" fill="#87CEEB"/>
  
  <!-- Head -->
  <path d="M160 70 Q180 60 185 80 L180 85 L160 70" fill="#87CEEB"/>
  
  <!-- Horn -->
  <path d="M165 75 Q175 65 180 70" fill="none" stroke="#87CEEB" stroke-width="4"/>
  
  <!-- Ear -->
  <path d="M155 75 L165 65 L170 75" fill="#87CEEB"/>
  
  <!-- Eye -->
  <circle cx="170" cy="78" r="2" fill="#000"/>
  
  <!-- Beard -->
  <path d="M175 85 Q180 90 178 95" fill="none" stroke="#87CEEB" stroke-width="2"/>
  
  <!-- Legs -->
  <line x1="70" y1="140" x2="70" y2="160" stroke="#87CEEB" stroke-width="6"/>
  <line x1="90" y1="140" x2="90" y2="160" stroke="#87CEEB" stroke-width="6"/>
  <line x1="110" y1="140" x2="110" y2="160" stroke="#87CEEB" stroke-width="6"/>
  <line x1="130" y1="140" x2="130" y2="160" stroke="#87CEEB" stroke-width="6"/>
</svg>